<svg xmlns="http://www.w3.org/2000/svg" viewBox="0 0 64 64" fill="none">
  <rect width="64" height="64" rx="16" fill="#FFF4BF" />
  <path
    d="M14 18c13-7 29-7 42 0L34 54 14 18Z"
    fill="#F59E0B"
    stroke="#7C2D12"
    stroke-linejoin="round"
    stroke-width="3"
  />
  <path
    d="M19 22c10-5 22-5 32 0"
    stroke="#FDE68A"
    stroke-linecap="round"
    stroke-width="4"
  />
  <circle cx="28" cy="29" r="3.5" fill="#DC2626" />
  <circle cx="38" cy="25" r="3.5" fill="#DC2626" />
  <circle cx="35" cy="35" r="3.5" fill="#DC2626" />
  <path
    d="M30 47c1.8 0 3.3-1.5 3.3-3.3S31.8 40.4 30 40.4s-3.3 1.5-3.3 3.3S28.2 47 30 47Z"
    fill="#84CC16"
  />
  <path
    d="M42 31c1.8 0 3.3-1.5 3.3-3.3S43.8 24.4 42 24.4s-3.3 1.5-3.3 3.3S40.2 31 42 31Z"
    fill="#84CC16"
  />
</svg>
